<mxfile host="app.diagrams.net" modified="2023-08-22T03:30:43.154Z" agent="Mozilla/5.0 (Windows NT 10.0; Win64; x64) AppleWebKit/537.36 (KHTML, like Gecko) Chrome/116.0.0.0 Safari/537.36" etag="-pX_jj3BDTTQMXvCaoiZ" version="21.6.8" type="github">
  <diagram name="Page-1" id="74e2e168-ea6b-b213-b513-2b3c1d86103e">
    <mxGraphModel dx="1272" dy="760" grid="1" gridSize="10" guides="1" tooltips="1" connect="1" arrows="1" fold="1" page="1" pageScale="1" pageWidth="1100" pageHeight="850" background="none" math="0" shadow="0">
      <root>
        <mxCell id="0" />
        <mxCell id="1" parent="0" />
        <mxCell id="p6QsBPsYKz_h2fwkekkV-1" value="serviceA" style="rounded=1;whiteSpace=wrap;html=1;" vertex="1" parent="1">
          <mxGeometry x="180" y="200" width="120" height="60" as="geometry" />
        </mxCell>
        <mxCell id="p6QsBPsYKz_h2fwkekkV-2" value="serviceB" style="rounded=1;whiteSpace=wrap;html=1;" vertex="1" parent="1">
          <mxGeometry x="200" y="230" width="120" height="60" as="geometry" />
        </mxCell>
        <mxCell id="p6QsBPsYKz_h2fwkekkV-10" style="edgeStyle=orthogonalEdgeStyle;rounded=0;orthogonalLoop=1;jettySize=auto;html=1;" edge="1" parent="1" source="p6QsBPsYKz_h2fwkekkV-3">
          <mxGeometry relative="1" as="geometry">
            <mxPoint x="450" y="290" as="targetPoint" />
          </mxGeometry>
        </mxCell>
        <mxCell id="p6QsBPsYKz_h2fwkekkV-3" value="serviceC" style="rounded=1;whiteSpace=wrap;html=1;" vertex="1" parent="1">
          <mxGeometry x="220" y="260" width="120" height="60" as="geometry" />
        </mxCell>
        <mxCell id="p6QsBPsYKz_h2fwkekkV-4" value="" style="endArrow=none;dashed=1;html=1;rounded=0;" edge="1" parent="1">
          <mxGeometry width="50" height="50" relative="1" as="geometry">
            <mxPoint x="130" y="850" as="sourcePoint" />
            <mxPoint x="130" y="70" as="targetPoint" />
          </mxGeometry>
        </mxCell>
        <mxCell id="p6QsBPsYKz_h2fwkekkV-5" value="" style="endArrow=none;dashed=1;html=1;rounded=0;" edge="1" parent="1">
          <mxGeometry width="50" height="50" relative="1" as="geometry">
            <mxPoint x="360" y="850" as="sourcePoint" />
            <mxPoint x="360" y="70" as="targetPoint" />
          </mxGeometry>
        </mxCell>
        <mxCell id="p6QsBPsYKz_h2fwkekkV-8" value="其它服务" style="text;html=1;strokeColor=none;fillColor=none;align=center;verticalAlign=middle;whiteSpace=wrap;rounded=0;" vertex="1" parent="1">
          <mxGeometry x="210" y="90" width="60" height="30" as="geometry" />
        </mxCell>
        <mxCell id="p6QsBPsYKz_h2fwkekkV-9" value="监测预警服务" style="text;html=1;strokeColor=none;fillColor=none;align=center;verticalAlign=middle;whiteSpace=wrap;rounded=0;" vertex="1" parent="1">
          <mxGeometry x="450" y="90" width="80" height="30" as="geometry" />
        </mxCell>
        <mxCell id="p6QsBPsYKz_h2fwkekkV-23" value="" style="edgeStyle=orthogonalEdgeStyle;rounded=0;orthogonalLoop=1;jettySize=auto;html=1;" edge="1" parent="1" source="p6QsBPsYKz_h2fwkekkV-11" target="p6QsBPsYKz_h2fwkekkV-22">
          <mxGeometry relative="1" as="geometry" />
        </mxCell>
        <mxCell id="p6QsBPsYKz_h2fwkekkV-11" value="预警配置" style="rounded=1;whiteSpace=wrap;html=1;" vertex="1" parent="1">
          <mxGeometry x="450" y="260" width="120" height="60" as="geometry" />
        </mxCell>
        <mxCell id="p6QsBPsYKz_h2fwkekkV-12" value="根据配置创建Ekuiper流及规则" style="rounded=1;whiteSpace=wrap;html=1;" vertex="1" parent="1">
          <mxGeometry x="450" y="480" width="120" height="60" as="geometry" />
        </mxCell>
        <mxCell id="p6QsBPsYKz_h2fwkekkV-14" value="" style="endArrow=none;dashed=1;html=1;rounded=0;" edge="1" parent="1">
          <mxGeometry width="50" height="50" relative="1" as="geometry">
            <mxPoint x="760" y="850" as="sourcePoint" />
            <mxPoint x="760" y="70" as="targetPoint" />
          </mxGeometry>
        </mxCell>
        <mxCell id="p6QsBPsYKz_h2fwkekkV-15" style="edgeStyle=orthogonalEdgeStyle;rounded=0;orthogonalLoop=1;jettySize=auto;html=1;exitX=0.5;exitY=1;exitDx=0;exitDy=0;" edge="1" parent="1" source="p6QsBPsYKz_h2fwkekkV-12" target="p6QsBPsYKz_h2fwkekkV-12">
          <mxGeometry relative="1" as="geometry" />
        </mxCell>
        <mxCell id="p6QsBPsYKz_h2fwkekkV-19" value="&lt;h1&gt;预警配置&lt;/h1&gt;&lt;p&gt;&lt;font style=&quot;font-size: 14px;&quot;&gt;1&lt;font style=&quot;&quot;&gt;.&amp;nbsp;监测服务&lt;/font&gt;&lt;/font&gt;&lt;/p&gt;&lt;p&gt;&lt;font size=&quot;3&quot;&gt;2.&amp;nbsp;预警方式（MQTT、MQ、API）&lt;br&gt;&lt;span style=&quot;background-color: initial;&quot;&gt;&lt;br&gt;3.&amp;nbsp;流配置（流名称、流字段）&lt;/span&gt;&lt;/font&gt;&lt;/p&gt;&lt;p&gt;&lt;span style=&quot;background-color: initial;&quot;&gt;&lt;font size=&quot;3&quot;&gt;4.&amp;nbsp;规则配置(规则名称、规则sql、通知方式)&lt;br&gt;&lt;/font&gt;&lt;/span&gt;&lt;/p&gt;&lt;p&gt;&lt;span style=&quot;background-color: initial;&quot;&gt;&lt;font size=&quot;3&quot;&gt;5.&amp;nbsp;是否启用&lt;/font&gt;&lt;/span&gt;&lt;/p&gt;&lt;p&gt;&lt;span style=&quot;background-color: initial;&quot;&gt;&lt;font size=&quot;3&quot;&gt;6.&amp;nbsp;是否存储&lt;/font&gt;&lt;/span&gt;&lt;/p&gt;&lt;p&gt;&lt;span style=&quot;background-color: initial;&quot;&gt;&lt;font size=&quot;3&quot;&gt;7.&amp;nbsp;预警消息（预制消息、定制消息（配置服务地址获取消息））&lt;/font&gt;&lt;/span&gt;&lt;/p&gt;" style="text;html=1;strokeColor=none;fillColor=none;spacing=5;spacingTop=-20;whiteSpace=wrap;overflow=hidden;rounded=0;" vertex="1" parent="1">
          <mxGeometry x="1430" y="170" width="340" height="305" as="geometry" />
        </mxCell>
        <mxCell id="p6QsBPsYKz_h2fwkekkV-25" value="" style="edgeStyle=orthogonalEdgeStyle;rounded=0;orthogonalLoop=1;jettySize=auto;html=1;" edge="1" parent="1" source="p6QsBPsYKz_h2fwkekkV-22" target="p6QsBPsYKz_h2fwkekkV-24">
          <mxGeometry relative="1" as="geometry" />
        </mxCell>
        <mxCell id="p6QsBPsYKz_h2fwkekkV-26" value="是" style="edgeLabel;html=1;align=center;verticalAlign=middle;resizable=0;points=[];" vertex="1" connectable="0" parent="p6QsBPsYKz_h2fwkekkV-25">
          <mxGeometry y="1" relative="1" as="geometry">
            <mxPoint x="-1" as="offset" />
          </mxGeometry>
        </mxCell>
        <mxCell id="p6QsBPsYKz_h2fwkekkV-27" value="" style="edgeStyle=orthogonalEdgeStyle;rounded=0;orthogonalLoop=1;jettySize=auto;html=1;" edge="1" parent="1" source="p6QsBPsYKz_h2fwkekkV-22" target="p6QsBPsYKz_h2fwkekkV-12">
          <mxGeometry relative="1" as="geometry" />
        </mxCell>
        <mxCell id="p6QsBPsYKz_h2fwkekkV-28" value="否" style="edgeLabel;html=1;align=center;verticalAlign=middle;resizable=0;points=[];" vertex="1" connectable="0" parent="p6QsBPsYKz_h2fwkekkV-27">
          <mxGeometry x="-0.2706" y="1" relative="1" as="geometry">
            <mxPoint as="offset" />
          </mxGeometry>
        </mxCell>
        <mxCell id="p6QsBPsYKz_h2fwkekkV-22" value="预警方式MQ" style="rhombus;whiteSpace=wrap;html=1;rounded=1;" vertex="1" parent="1">
          <mxGeometry x="470" y="345" width="80" height="80" as="geometry" />
        </mxCell>
        <mxCell id="p6QsBPsYKz_h2fwkekkV-30" style="edgeStyle=orthogonalEdgeStyle;rounded=0;orthogonalLoop=1;jettySize=auto;html=1;exitX=0.5;exitY=1;exitDx=0;exitDy=0;entryX=0.75;entryY=0;entryDx=0;entryDy=0;" edge="1" parent="1" source="p6QsBPsYKz_h2fwkekkV-24" target="p6QsBPsYKz_h2fwkekkV-12">
          <mxGeometry relative="1" as="geometry" />
        </mxCell>
        <mxCell id="p6QsBPsYKz_h2fwkekkV-24" value="转MQTT" style="whiteSpace=wrap;html=1;rounded=1;" vertex="1" parent="1">
          <mxGeometry x="600" y="362.5" width="70" height="45" as="geometry" />
        </mxCell>
        <mxCell id="p6QsBPsYKz_h2fwkekkV-31" value="serviceA" style="rounded=1;whiteSpace=wrap;html=1;" vertex="1" parent="1">
          <mxGeometry x="150" y="620" width="120" height="60" as="geometry" />
        </mxCell>
        <mxCell id="p6QsBPsYKz_h2fwkekkV-32" value="serviceB" style="rounded=1;whiteSpace=wrap;html=1;" vertex="1" parent="1">
          <mxGeometry x="170" y="650" width="120" height="60" as="geometry" />
        </mxCell>
        <mxCell id="p6QsBPsYKz_h2fwkekkV-35" value="" style="edgeStyle=orthogonalEdgeStyle;rounded=0;orthogonalLoop=1;jettySize=auto;html=1;" edge="1" parent="1" source="p6QsBPsYKz_h2fwkekkV-33" target="p6QsBPsYKz_h2fwkekkV-34">
          <mxGeometry relative="1" as="geometry" />
        </mxCell>
        <mxCell id="p6QsBPsYKz_h2fwkekkV-36" value="上报消息" style="edgeLabel;html=1;align=center;verticalAlign=middle;resizable=0;points=[];" vertex="1" connectable="0" parent="p6QsBPsYKz_h2fwkekkV-35">
          <mxGeometry x="-0.4167" y="1" relative="1" as="geometry">
            <mxPoint x="1" as="offset" />
          </mxGeometry>
        </mxCell>
        <mxCell id="p6QsBPsYKz_h2fwkekkV-33" value="serviceC" style="rounded=1;whiteSpace=wrap;html=1;" vertex="1" parent="1">
          <mxGeometry x="190" y="680" width="120" height="60" as="geometry" />
        </mxCell>
        <mxCell id="p6QsBPsYKz_h2fwkekkV-40" value="" style="edgeStyle=orthogonalEdgeStyle;rounded=0;orthogonalLoop=1;jettySize=auto;html=1;" edge="1" parent="1" source="p6QsBPsYKz_h2fwkekkV-34" target="p6QsBPsYKz_h2fwkekkV-39">
          <mxGeometry relative="1" as="geometry" />
        </mxCell>
        <mxCell id="p6QsBPsYKz_h2fwkekkV-34" value="Ekuiper根据预警规则进行监测" style="whiteSpace=wrap;html=1;rounded=1;" vertex="1" parent="1">
          <mxGeometry x="480" y="680" width="120" height="60" as="geometry" />
        </mxCell>
        <mxCell id="p6QsBPsYKz_h2fwkekkV-42" value="" style="edgeStyle=orthogonalEdgeStyle;rounded=0;orthogonalLoop=1;jettySize=auto;html=1;" edge="1" parent="1" source="p6QsBPsYKz_h2fwkekkV-39" target="p6QsBPsYKz_h2fwkekkV-41">
          <mxGeometry relative="1" as="geometry" />
        </mxCell>
        <mxCell id="p6QsBPsYKz_h2fwkekkV-43" value="否" style="edgeLabel;html=1;align=center;verticalAlign=middle;resizable=0;points=[];" vertex="1" connectable="0" parent="p6QsBPsYKz_h2fwkekkV-42">
          <mxGeometry x="-0.3667" y="-1" relative="1" as="geometry">
            <mxPoint as="offset" />
          </mxGeometry>
        </mxCell>
        <mxCell id="p6QsBPsYKz_h2fwkekkV-45" value="" style="edgeStyle=orthogonalEdgeStyle;rounded=0;orthogonalLoop=1;jettySize=auto;html=1;" edge="1" parent="1" source="p6QsBPsYKz_h2fwkekkV-39" target="p6QsBPsYKz_h2fwkekkV-44">
          <mxGeometry relative="1" as="geometry" />
        </mxCell>
        <mxCell id="p6QsBPsYKz_h2fwkekkV-46" value="是" style="edgeLabel;html=1;align=center;verticalAlign=middle;resizable=0;points=[];" vertex="1" connectable="0" parent="p6QsBPsYKz_h2fwkekkV-45">
          <mxGeometry x="-0.3" y="-1" relative="1" as="geometry">
            <mxPoint y="-1" as="offset" />
          </mxGeometry>
        </mxCell>
        <mxCell id="p6QsBPsYKz_h2fwkekkV-39" value="满足预警规则" style="rhombus;whiteSpace=wrap;html=1;rounded=1;" vertex="1" parent="1">
          <mxGeometry x="500" y="770" width="80" height="80" as="geometry" />
        </mxCell>
        <mxCell id="p6QsBPsYKz_h2fwkekkV-41" value="end" style="ellipse;whiteSpace=wrap;html=1;rounded=1;" vertex="1" parent="1">
          <mxGeometry x="660" y="770" width="80" height="80" as="geometry" />
        </mxCell>
        <mxCell id="p6QsBPsYKz_h2fwkekkV-44" value="根据消息类型进行预警&lt;br&gt;1.&amp;nbsp;定制消息，通过配置接口api获取消息内容&lt;br&gt;2.&amp;nbsp;预制消息，直接发送预警消息" style="whiteSpace=wrap;html=1;rounded=1;align=left;" vertex="1" parent="1">
          <mxGeometry x="425" y="900" width="230" height="60" as="geometry" />
        </mxCell>
      </root>
    </mxGraphModel>
  </diagram>
</mxfile>
